<svg width="31" height="30" viewBox="0 0 31 30" fill="none" xmlns="http://www.w3.org/2000/svg">
<g id="local.svg" clip-path="url(#clip0_2_46)">
<g id="Group">
<path id="Vector" d="M15.61 0C9.44131 0 4.42282 5.0205 4.42282 11.1916C4.42282 20.3862 14.4965 29.3638 14.9254 29.7416C15.121 29.9138 15.3654 30.0001 15.61 30.0001C15.8545 30.0001 16.099 29.9139 16.2946 29.7416C16.7234 29.3639 26.7972 20.3863 26.7972 11.1916C26.7972 5.0205 21.7787 0 15.61 0ZM15.61 27.5443C13.3828 25.3862 6.49454 18.1475 6.49454 11.1916C6.49454 6.16293 10.5837 2.07172 15.61 2.07172C20.6363 2.07172 24.7254 6.16293 24.7254 11.1916C24.7254 18.1474 17.8372 25.3861 15.61 27.5443Z" fill="#E63946"/>
<path id="Vector_2" d="M15.61 5.97803C12.7541 5.97803 10.4308 8.31682 10.4308 11.1916C10.4308 14.0664 12.7541 16.4051 15.61 16.4051C18.4658 16.4051 20.7892 14.0664 20.7892 11.1916C20.7892 8.31682 18.4658 5.97803 15.61 5.97803ZM15.61 14.3334C13.8964 14.3334 12.5024 12.924 12.5024 11.1916C12.5024 9.45924 13.8964 8.04974 15.61 8.04974C17.3235 8.04974 18.7176 9.45914 18.7176 11.1916C18.7176 12.924 17.3235 14.3334 15.61 14.3334Z" fill="#E63946"/>
</g>
</g>
<defs>
<clipPath id="clip0_2_46">
<rect width="30" height="30" fill="white" transform="translate(0.609985)"/>
</clipPath>
</defs>
</svg>
