<svg width="31" height="30" viewBox="0 0 31 30" fill="none" xmlns="http://www.w3.org/2000/svg">
<g id="phone.svg">
<path id="Vector" d="M18.13 2.5C18.13 2.5 20.88 2.75 24.38 6.25C27.88 9.75 28.13 12.5 28.13 12.5" stroke="#E63946" stroke-width="1.875" stroke-linecap="round"/>
<path id="Vector_2" d="M18.3888 6.91956C18.3888 6.91956 19.6263 7.27312 21.4824 9.12927C23.3385 10.9854 23.6921 12.2229 23.6921 12.2229" stroke="#E63946" stroke-width="1.875" stroke-linecap="round"/>
<path id="Vector_3" d="M13.177 6.64521L13.9883 8.09888C14.7204 9.41073 14.4265 11.1316 13.2734 12.2847C13.2734 12.2847 11.8749 13.6835 14.4106 16.2194C16.9456 18.7544 18.3453 17.3566 18.3453 17.3566C19.4984 16.2035 21.2193 15.9096 22.5311 16.6418L23.9848 17.453C25.9658 18.5585 26.1996 21.3365 24.4585 23.0778C23.4123 24.124 22.1305 24.9381 20.7136 24.9918C18.3285 25.0823 14.2779 24.4786 10.2146 20.4154C6.15142 16.3521 5.54777 12.3015 5.63819 9.91636C5.69191 8.4995 6.50601 7.21779 7.55227 6.17154C9.29346 4.43035 12.0715 4.6643 13.177 6.64521Z" stroke="#E63946" stroke-width="1.875" stroke-linecap="round"/>
</g>
</svg>
